:version 1.10
:name ASF
:units
  mass 1
  length 1
  angle deg
:documentation
  ASF file generated by Kaydara
:root
  axis xyz
  order  tx ty tz rx ry rz
  position 0 0 0
  orientation 0 0 0
:bonedata
  begin
    id 1
    name RightUpLegDummy
    direction -0.65628 -0.754516 0.00165102
    length 4.76918
    axis 0 0 0 xyz
  end
  begin
    id 2
    name RightUpLeg
    direction -0.145584 -0.923362 0.355256
    length 17.9961
    axis -24.7611 -13.1006 1.78531 xyz
    dof rx ry rz
  end
  begin
    id 3
    name RightLeg
    direction 0.263379 0.172355 -0.949171
    length 13.3386
    axis 89.6202 -21.1929 12.3855 xyz
    dof rx ry rz
  end
  begin
    id 4
    name RightFoot
    direction 0.224283 -0.968777 -0.105675
    length 5.86697
    axis 56.995 -39.6905 17.3365 xyz
    dof rx ry rz
  end
  begin
    id 5
    name RightToes
    direction -0.0806345 -0.9037 0.420506
    length 4.75197
    axis 146.825 -39.7828 17.6019 xyz
    dof rx ry rz
  end
  begin
    id 6
    name SpineDummy
    direction -3.39852e-014 1 9.33296e-014
    length 8.13779
    axis 0 0 0 xyz
  end
  begin
    id 7
    name Spine
    direction -0.156609 0.733703 0.661176
    length 7.14978
    axis 41.2365 5.68757 17.0844 xyz
    dof rx ry rz
  end
  begin
    id 8
    name Spine1
    direction 0 0 0
    length 0
    axis 42.8809 47.8308 -3.36039 xyz
    dof rx ry rz
  end
  begin
    id 9
    name HEadDummy
    direction 0.546431 0.701947 0.456819
    length 3.55512
    axis 42.8809 47.8308 -3.36039 xyz
  end
  begin
    id 10
    name HEad
    direction 0.23444 0.828559 0.508457
    length 7.35827
    axis 51.1864 49.2662 27.4903 xyz
    dof rx ry rz
  end
  begin
    id 11
    name LeftShoulder1Dummy
    direction 0.431183 0.475873 -0.766568
    length 2.49352
    axis 42.8809 47.8308 -3.36039 xyz
  end
  begin
    id 12
    name LeftShoulder1
    direction 0.268187 -0.383402 -0.883786
    length 4.48604
    axis -119.517 0.106469 35.1736 xyz
    dof rx ry rz
  end
  begin
    id 13
    name LeftArm
    direction 0.380567 -0.703221 -0.600541
    length 10.1142
    axis -5.41825 36.2925 7.8293 xyz
    dof rx ry rz
  end
  begin
    id 14
    name LeftForeArm
    direction 0.541071 -0.732356 -0.413396
    length 9.39839
    axis 4.65387 33.7604 7.81644 xyz
    dof rx ry rz
  end
  begin
    id 15
    name LeftHand
    direction 0.847511 -0.389379 -0.360707
    length 3.66142
    axis 7.65593 21.1436 -24.6758 xyz
    dof rx ry rz
  end
  begin
    id 16
    name RightShoulderDummy
    direction -0.692546 0.541855 0.476208
    length 2.49352
    axis 42.8809 47.8308 -3.36039 xyz
  end
  begin
    id 17
    name RightShoulder
    direction -0.870808 -0.316653 0.376065
    length 4.48602
    axis 141.571 51.133 -100.254 xyz
    dof rx ry rz
  end
  begin
    id 18
    name RightArm
    direction 0.366897 -0.87275 0.322015
    length 10.1142
    axis 92.3258 71.2036 138.917 xyz
    dof rx ry rz
  end
  begin
    id 19
    name RightForeArm
    direction 0.702487 -0.694568 0.155197
    length 9.39835
    axis 153.863 41.5092 -176.604 xyz
    dof rx ry rz
  end
  begin
    id 20
    name RightHand
    direction 0.79502 -0.601276 0.0800636
    length 3.66142
    axis 154.247 4.59222 142.9 xyz
    dof rx ry rz
  end
  begin
    id 21
    name LeftUpLegDummy
    direction 0.65628 -0.754516 0.00165102
    length 4.76919
    axis 0 0 0 xyz
  end
  begin
    id 22
    name LeftUpLeg
    direction -0.1277 -0.689368 0.713067
    length 17.9961
    axis -48.3385 -17.8675 0.791927 xyz
    dof rx ry rz
  end
  begin
    id 23
    name LeftLeg
    direction 0.109849 -0.991246 -0.0732378
    length 13.3386
    axis -2.05791 -7.30784 1.72042 xyz
    dof rx ry rz
  end
  begin
    id 24
    name LeftFoot
    direction 0.0448355 -0.272614 0.961078
    length 5.86697
    axis -18.7733 -7.89606 10.2113 xyz
    dof rx ry rz
  end
  begin
    id 25
    name LeftToes
    direction -0.18506 0.293668 0.937823
    length 4.75197
    axis 71.2267 -7.89606 10.2113 xyz
    dof rx ry rz
  end
:hierarchy
  begin
    root RightUpLegDummy SpineDummy LeftUpLegDummy
    RightUpLegDummy RightUpLeg
    RightUpLeg RightLeg
    RightLeg RightFoot
    RightFoot RightToes
    SpineDummy Spine
    Spine Spine1
    Spine1 HEadDummy LeftShoulder1Dummy RightShoulderDummy
    HEadDummy HEad
    LeftShoulder1Dummy LeftShoulder1
    LeftShoulder1 LeftArm
    LeftArm LeftForeArm
    LeftForeArm LeftHand
    RightShoulderDummy RightShoulder
    RightShoulder RightArm
    RightArm RightForeArm
    RightForeArm RightHand
    LeftUpLegDummy LeftUpLeg
    LeftUpLeg LeftLeg
    LeftLeg LeftFoot
    LeftFoot LeftToes
  end

:SAMPLES-PER-SECOND 30
:FULLY-SPECIFIED
:DEGREES
614
root  0.477912 34.8928 -63.7486 165.245 68.7726 169.863
RightUpLeg  -8.77078 5.54705 16.5631
RightLeg  -79.5755 -16.908 10.0303
RightFoot  25.203 13.9336 -29.6523
RightToes  -1.27222e-014 -6.36111e-015 6.36111e-015
Spine  -23.0675 -16.3485 -6.02526
Spine1  9.14823 -16.9563 62.9824
HEad  2.15072 -58.9158 -11.8589
LeftShoulder1  6.36111e-015 -1.33558e-015 6.49777e-015
LeftArm  12.7638 7.09037 -9.68853
LeftForeArm  -26.0314 -46.6438 16.465
LeftHand  -1.1995 -1.41879 -9.40774
RightShoulder  -4.77083e-015 -6.36111e-015 -3.18055e-015
RightArm  81.2381 -19.8539 -47.963
RightForeArm  -27.3292 5.3833 -19.8338
RightHand  -1.55501 7.46424 4.09795
LeftUpLeg  27.0886 34.3285 20.9532
LeftLeg  42.2474 7.27463 13.9991
LeftFoot  8.47781 1.29939 -3.47386
LeftToes  9.54166e-015 4.2066e-011 -8.07781e-011
615
root  0.895119 34.7215 -64.492 160.892 74.3331 166.703
RightUpLeg  -6.95865 8.08197 18.07
RightLeg  -74.9698 -16.4387 6.23007
RightFoot  23.9711 14.4059 -30.4692
RightToes  -1.27222e-014 -6.36111e-015 6.36111e-015
Spine  -23.255 -15.9115 -6.45675
Spine1  11.8549 -16.6664 61.7978
HEad  0.518787 -59.0891 -11.4805
LeftShoulder1  6.36111e-015 -1.33558e-015 6.49777e-015
LeftArm  10.623 3.46649 -16.0862
LeftForeArm  -35.7928 -50.1501 24.8686
LeftHand  -0.79402 -0.299056 -8.50716
RightShoulder  -4.77083e-015 -6.36111e-015 -3.18055e-015
RightArm  80.4321 -27.9737 -46.2927
RightForeArm  -20.1152 6.43527 -17.8198
RightHand  -1.09382 4.9973 2.70495
LeftUpLeg  23.3926 33.2833 20.3618
LeftLeg  45.2594 6.03052 13.962
LeftFoot  4.01149 1.41911 -4.23915
LeftToes  9.54166e-015 4.2066e-011 -8.07781e-011
616
root  1.37492 34.9407 -65.157 153.152 78.3901 160.002
RightUpLeg  -4.15276 10.2951 18.5832
RightLeg  -73.9128 -16.0538 4.95909
RightFoot  22.7649 14.3401 -30.5031
RightToes  -1.27222e-014 -6.36111e-015 6.36111e-015
Spine  -23.6616 -17.1661 -7.78886
Spine1  13.3239 -17.3441 62.0585
HEad  1.69722 -58.0553 -14.2797
LeftShoulder1  6.36111e-015 -1.33558e-015 6.49777e-015
LeftArm  8.49159 -1.98147 -23.0456
LeftForeArm  -40.6353 -52.2858 30.3717
LeftHand  -0.758007 -0.24238 -8.2702
RightShoulder  -4.77083e-015 -6.36111e-015 -3.18055e-015
RightArm  77.1316 -35.7143 -42.7886
RightForeArm  -10.8243 5.98263 -13.6227
RightHand  -0.882416 3.39771 3.01617
LeftUpLeg  21.3447 29.9264 18.1581
LeftLeg  42.7804 4.91231 11.5007
LeftFoot  2.73447 2.38332 -7.3802
LeftToes  9.54166e-015 4.2066e-011 -8.07781e-011
617
root  1.79263 35.4106 -65.7439 136.353 82.2427 143.973
RightUpLeg  -1.21536 10.9744 18.3199
RightLeg  -74.8177 -15.041 3.11916
RightFoot  24.2452 14.7889 -31.0047
RightToes  -1.27222e-014 -6.36111e-015 6.36111e-015
Spine  -23.6777 -18.9556 -9.53132
Spine1  12.796 -17.9741 62.6628
HEad  4.98709 -56.2843 -18.2444
LeftShoulder1  6.36111e-015 -1.33558e-015 6.49777e-015
LeftArm  7.07453 -9.00717 -29.9148
LeftForeArm  -38.2328 -53.2901 29.9374
LeftHand  -0.930201 -0.710276 -8.63546
RightShoulder  -4.77083e-015 -6.36111e-015 -3.18055e-015
RightArm  74.0259 -41.9719 -39.0558
RightForeArm  -4.91842 0.896003 -8.94402
RightHand  -0.81533 2.43279 3.7277
LeftUpLeg  21.9526 26.1389 16.0318
LeftLeg  36.4787 5.28644 9.60893
LeftFoot  2.38572 2.65145 -8.2935
LeftToes  9.54166e-015 4.2066e-011 -8.07781e-011
618
root  2.09626 35.9906 -66.3318 74.3819 84.7517 81.9936
RightUpLeg  0.353647 11.5514 17.5147
RightLeg  -73.293 -11.4742 -5.39233
RightFoot  27.8271 12.4148 -27.323
RightToes  -1.27222e-014 -6.36111e-015 6.36111e-015
Spine  -23.4705 -20.1314 -11.0299
Spine1  10.8248 -17.8465 62.2272
HEad  7.01578 -53.9179 -20.451
LeftShoulder1  6.36111e-015 -1.33558e-015 6.49777e-015
LeftArm  6.69189 -16.7719 -35.2577
LeftForeArm  -32.5107 -53.5661 26.3994
LeftHand  -0.955018 -0.751974 -8.7993
RightShoulder  -4.77083e-015 -6.36111e-015 -3.18055e-015
RightArm  74.5219 -44.717 -44.9965
RightForeArm  -1.61495 -1.57735 -2.79573
RightHand  -0.775449 2.42491 3.36318
LeftUpLeg  24.8379 22.6882 14.9678
LeftLeg  27.802 5.56541 7.18868
LeftFoot  2.08718 1.80355 -5.68387
LeftToes  9.54166e-015 4.2066e-011 -8.07781e-011
619
root  2.40071 36.5247 -66.9217 26.5073 78.5355 33.601
RightUpLeg  0.144498 12.9499 15.2711
RightLeg  -70.3631 -5.51321 -18.1957
RightFoot  28.9061 3.68054 -15.6688
RightToes  -1.27222e-014 -6.36111e-015 6.36111e-015
Spine  -23.1517 -21.7235 -13.1625
Spine1  8.38535 -17.8098 60.8579
HEad  6.73848 -50.2411 -21.1369
LeftShoulder1  6.36111e-015 -1.33558e-015 6.49777e-015
LeftArm  7.20906 -23.9706 -37.4919
LeftForeArm  -29.1169 -53.201 23.8529
LeftHand  -0.806511 -0.365474 -8.40379
RightShoulder  -4.77083e-015 -6.36111e-015 -3.18055e-015
RightArm  77.3647 -44.3288 -54.4946
RightForeArm  0.517878 -1.99512 2.25058
RightHand  -1.01984 4.20476 3.21186
LeftUpLeg  29.1791 18.712 12.9405
LeftLeg  17.9641 2.42316 3.16043
LeftFoot  3.50469 1.75602 -5.31966
LeftToes  9.54166e-015 4.2066e-011 -8.07781e-011
620
root  2.80239 36.6589 -67.4532 16.2001 69.5667 23.3172
RightUpLeg  -1.28559 13.6939 11.9639
RightLeg  -67.4076 -1.68969 -23.8891
RightFoot  23.3003 -4.17675 -3.54033
RightToes  -1.27222e-014 -6.36111e-015 6.36111e-015
Spine  -22.5568 -24.238 -15.8221
Spine1  5.98697 -18.5215 58.7495
HEad  5.40478 -44.6711 -21.4575
LeftShoulder1  6.36111e-015 -1.33558e-015 6.49777e-015
LeftArm  8.42794 -29.768 -36.0997
LeftForeArm  -29.8614 -52.2432 23.4201
LeftHand  -0.635439 0.0340079 -7.81601
RightShoulder  -4.77083e-015 -6.36111e-015 -3.18055e-015
RightArm  79.758 -43.6816 -56.8383
RightForeArm  -0.624893 -4.03159 2.71021
RightHand  -1.48037 6.57455 4.8184
LeftUpLeg  35.0226 14.172 8.13696
LeftLeg  9.06034 -4.19025 -0.283048
LeftFoot  2.13162 3.65832 -11.5241
LeftToes  9.54166e-015 4.2066e-011 -8.07781e-011
621
root  3.24349 36.3458 -67.9759 10.3504 60.0688 18.3432
RightUpLeg  -2.89599 13.5059 9.59241
RightLeg  -63.0231 -3.60176 -17.5051
RightFoot  15.0101 -4.29321 0.204487
RightToes  -1.27222e-014 -6.36111e-015 6.36111e-015
Spine  -21.9272 -25.8051 -16.8458
Spine1  3.92038 -19.2098 56.2262
HEad  3.209 -37.9135 -20.6516
LeftShoulder1  6.36111e-015 -1.33558e-015 6.49777e-015
LeftArm  9.74978 -34.2607 -31.6443
LeftForeArm  -32.7053 -50.8685 23.7998
LeftHand  -0.551007 0.118737 -7.11256
RightShoulder  -4.77083e-015 -6.36111e-015 -3.18055e-015
RightArm  82.1696 -44.1087 -52.1426
RightForeArm  -5.60259 -7.77832 -1.39687
RightHand  -1.77668 7.969 6.75176
LeftUpLeg  41.9332 12.441 3.73461
LeftLeg  1.90335 -8.39958 -1.25621
LeftFoot  -5.0945 4.79397 -19.059
LeftToes  9.54166e-015 4.2066e-011 -8.07781e-011
622
root  3.74062 35.8345 -68.3861 6.66808 50.2157 16.0553
RightUpLeg  -4.40227 13.2922 8.09551
RightLeg  -60.3772 -13.0513 -2.72026
RightFoot  9.41295 0.752445 -6.08087
RightToes  -1.27222e-014 -6.36111e-015 6.36111e-015
Spine  -21.0619 -27.5724 -19.1179
Spine1  2.84746 -19.967 54.5618
HEad  -0.892462 -30.9796 -18.3819
LeftShoulder1  6.36111e-015 -1.33558e-015 6.49777e-015
LeftArm  9.47221 -37.1555 -24.5274
LeftForeArm  -35.0557 -49.6481 23.909
LeftHand  -0.536525 -0.0891586 -6.10381
RightShoulder  -4.77083e-015 -6.36111e-015 -3.18055e-015
RightArm  83.0936 -43.6718 -44.029
RightForeArm  -12.1672 -11.7369 -6.74095
RightHand  -1.76659 7.94067 6.63259
LeftUpLeg  47.8891 17.0459 4.23237
LeftLeg  -2.78433 -7.04243 -1.02359
LeftFoot  -12.7748 3.75442 -20.5893
LeftToes  9.54166e-015 4.2066e-011 -8.07781e-011
623
root  4.24821 35.4419 -68.6216 4.8097 41.8831 14.9816
RightUpLeg  -6.33186 12.964 6.29724
RightLeg  -60.7163 -21.9199 8.83116
RightFoot  9.16331 4.50081 -13.083
RightToes  -1.27222e-014 -6.36111e-015 6.36111e-015
Spine  -20.6645 -30.0289 -23.0348
Spine1  3.57777 -20.8938 57.4802
HEad  -6.72653 -23.7629 -16.917
LeftShoulder1  6.36111e-015 -1.33558e-015 6.49777e-015
LeftArm  6.91744 -36.5559 -16.1201
LeftForeArm  -34.9536 -49.2282 23.4108
LeftHand  -0.4902 -0.14484 -5.2988
RightShoulder  -4.77083e-015 -6.36111e-015 -3.18055e-015
RightArm  81.0859 -38.2961 -40.5715
RightForeArm  -16.0639 -9.99674 -8.28721
RightHand  -1.35414 6.20638 3.7575
LeftUpLeg  52.0155 23.7268 8.78589
LeftLeg  -5.27185 -3.94152 -0.916139
LeftFoot  -17.0458 2.62772 -18.1651
LeftToes  9.54166e-015 4.2066e-011 -8.07781e-011
624
root  4.64846 35.3599 -68.74 3.97558 36.1026 13.1207
RightUpLeg  -7.23902 11.3365 5.20846
RightLeg  -60.7669 -23.1615 10.3195
RightFoot  9.05885 5.19055 -14.3843
RightToes  -1.27222e-014 -6.36111e-015 6.36111e-015
Spine  -20.8234 -32.1726 -25.9469
Spine1  4.72655 -21.8381 65.1016
HEad  -11.9954 -16.2559 -18.2296
LeftShoulder1  6.36111e-015 -1.33558e-015 6.49777e-015
LeftArm  4.53006 -31.8593 -10.3248
LeftForeArm  -30.717 -49.4341 21.2765
LeftHand  -0.348315 0.29928 -5.39898
RightShoulder  -4.77083e-015 -6.36111e-015 -3.18055e-015
RightArm  76.8479 -31.6516 -36.8708
RightForeArm  -18.736 -8.87972 -9.2731
RightHand  -0.460452 3.09376 -0.712439
LeftUpLeg  52.5204 26.7149 11.44
LeftLeg  -5.15106 -1.58618 -0.832384
LeftFoot  -17.5356 2.71492 -19.3586
LeftToes  9.54166e-015 4.2066e-011 -8.07781e-011
625
root  4.91225 35.4563 -68.7658 3.09615 31.189 9.57037
RightUpLeg  -6.3846 9.25143 7.0204
RightLeg  -61.7493 -19.641 6.35608
RightFoot  6.94798 5.65565 -14.8472
RightToes  -1.27222e-014 -6.36111e-015 6.36111e-015
Spine  -21.145 -32.3412 -25.775
Spine1  4.09554 -21.8754 72.3226
HEad  -14.523 -9.66379 -20.6926
LeftShoulder1  6.36111e-015 -1.33558e-015 6.49777e-015
LeftArm  3.72059 -26.0222 -8.83119
LeftForeArm  -22.8258 -48.9357 16.6305
LeftHand  -0.169986 1.04631 -6.20122
RightShoulder  -4.77083e-015 -6.36111e-015 -3.18055e-015
RightArm  73.8478 -27.1111 -39.4763
RightForeArm  -19.9092 -5.31854 -11.1977
RightHand  0.451309 0.766865 -4.70223
LeftUpLeg  49.1177 26.4863 13.0619
LeftLeg  0.199394 1.14441 0.0305115
LeftFoot  -14.6905 3.98804 -24.1052
LeftToes  9.54166e-015 4.2066e-011 -8.07781e-011
626
root  5.0464 35.4875 -68.7104 1.67524 25.0457 5.44427
RightUpLeg  -4.44546 8.7491 11.5414
RightLeg  -64.5447 -17.1201 3.7329
RightFoot  5.12826 7.21211 -17.7343
RightToes  -1.27222e-014 -6.36111e-015 6.36111e-015
Spine  -21.0624 -30.1264 -23.4897
Spine1  2.28464 -20.3847 75.1342
HEad  -14.4682 -4.80563 -21.3041
LeftShoulder1  6.36111e-015 -1.33558e-015 6.49777e-015
LeftArm  3.76104 -22.158 -9.03897
LeftForeArm  -15.828 -46.9863 11.7906
LeftHand  -0.108053 1.44091 -6.91569
RightShoulder  -4.77083e-015 -6.36111e-015 -3.18055e-015
RightArm  73.5408 -26.5193 -48.167
RightForeArm  -23.0355 0.4474 -15.1682
RightHand  0.516637 1.21557 -6.04973
LeftUpLeg  43.7741 26.5552 17.3105
LeftLeg  11.2975 5.04433 2.92
LeftFoot  -6.80548 5.58709 -23.6146
LeftToes  9.54166e-015 4.2066e-011 -8.07781e-011
627
root  5.09726 35.3466 -68.6504 -0.12426 18.1265 2.13122
RightUpLeg  -2.34564 9.68013 16.5762
RightLeg  -66.1038 -16.7379 3.55762
RightFoot  4.94738 8.65716 -20.7947
RightToes  -1.27222e-014 -6.36111e-015 6.36111e-015
Spine  -20.6218 -27.0161 -20.4942
Spine1  1.99045 -18.6471 74.5186
HEad  -14.2842 -0.952904 -19.916
LeftShoulder1  6.36111e-015 -1.33558e-015 6.49777e-015
LeftArm  4.00021 -20.5027 -7.94651
LeftForeArm  -13.9338 -45.343 9.96474
LeftHand  -0.296583 0.944325 -7.22979
RightShoulder  -4.77083e-015 -6.36111e-015 -3.18055e-015
RightArm  74.8945 -28.4264 -56.765
RightForeArm  -30.4787 4.92641 -20.5513
RightHand  0.00933636 2.84445 -4.77219
LeftUpLeg  37.2945 26.6314 20.8441
LeftLeg  24.1486 6.94872 7.04937
LeftFoot  4.12573 5.18335 -15.3908
LeftToes  9.54166e-015 4.2066e-011 -8.07781e-011
